# xmcd
#
# Track frame offsets:
#   150
#   13028
#   23700
#   33297
#   43734
#   57343
#
# Disc length: 920 seconds
#
# Revision: 0
# Processed by: cddbd v1.5.2PL0 Copyright (c) Steve Scherf et al.
# Submitted via: uFREEDB 1.6.0
#
DISCID=43039606
DTITLE=GRÊMIO - GRÊMIO
DYEAR=1900
DGENRE=Alternative
TTITLE0=CAMPEÃO MUNDIAL
TTITLE1=HINO COMPLETO
TTITLE2=CAMPEÃO DA AMÉRICA
TTITLE3=BICAMPEÃO DE AMÉRICA
TTITLE4=HINO SAMBÃO
TTITLE5=HINO VANERÃO
EXTD=
EXTT0=
EXTT1=
EXTT2=
EXTT3=
EXTT4=
EXTT5=
PLAYORDER=
